<svg width="250" height="200" viewBox="0 0 250 200" fill="none" xmlns="http://www.w3.org/2000/svg">
<path d="M235.78 85.4346C227.108 71.8669 212.554 62.19 196.804 58.798C153.642 49.4204 145.767 63.3871 103.003 42.5368C78.7801 30.665 62.3325 28.6698 44.7884 35.2541C25.8487 42.3372 12.0925 61.1923 7.90581 81.1448C-0.46752 122.446 19.5687 161.254 51.9655 184H197.303C246.845 155.967 251.929 110.774 235.78 85.4346Z" fill="#CBDEF5"/>
<path d="M193.615 22.0854H71.4037V180.508H193.615V22.0854Z" fill="#F2F2F2"/>
<path d="M194.113 181.007H70.9053V21.5867H194.113V181.007ZM71.9021 180.009H193.116V22.5843H71.9021V180.009Z" fill="#1D477A"/>
<path d="M87.951 99.9003H76.7865V116.66H87.951V99.9003Z" fill="#FACC00"/>
<path d="M88.4494 117.059H76.2881V99.4014H88.4494V117.059ZM77.285 116.062H87.4526V100.299H77.285V116.062Z" fill="#1D477A"/>
<path d="M104.698 99.9003H93.5332V116.66H104.698V99.9003Z" fill="#FACC00"/>
<path d="M105.196 117.059H93.0348V99.4014H105.196V117.059ZM94.0316 116.062H104.199V100.299H94.0316V116.062Z" fill="#1D477A"/>
<path d="M121.345 99.9003H110.18V116.66H121.345V99.9003Z" fill="#FACC00"/>
<path d="M121.843 117.059H109.682V99.4014H121.843V117.059ZM110.679 116.062H120.846V100.299H110.679V116.062Z" fill="#1D477A"/>
<path d="M138.091 99.9003H126.927V116.66H138.091V99.9003Z" fill="#FACC00"/>
<path d="M138.59 117.059H126.428V99.4014H138.59V117.059ZM127.425 116.062H137.593V100.299H127.425V116.062Z" fill="#1D477A"/>
<path d="M154.639 99.9003H143.474V116.66H154.639V99.9003Z" fill="#FACC00"/>
<path d="M155.137 117.059H142.976V99.4014H155.137V117.059ZM143.973 116.062H154.14V100.299H143.973V116.062Z" fill="#1D477A"/>
<path d="M171.385 99.9003H160.221V116.66H171.385V99.9003Z" fill="#FACC00"/>
<path d="M171.884 117.059H159.722V99.4014H171.884V117.059ZM160.719 116.062H170.887V100.299H160.719V116.062Z" fill="#1D477A"/>
<path d="M188.032 99.9003H176.868V116.66H188.032V99.9003Z" fill="#FACC00"/>
<path d="M188.531 117.059H176.369V99.4014H188.531V117.059ZM177.366 116.062H187.534V100.299H177.366V116.062Z" fill="#1D477A"/>
<path d="M87.951 33.0593H76.7865V49.8194H87.951V33.0593Z" fill="#FACC00"/>
<path d="M88.4494 50.3182H76.2881V32.6603H88.4494V50.3182ZM77.285 49.3206H87.4526V33.5581H77.285V49.3206Z" fill="#1D477A"/>
<path d="M104.698 33.0593H93.5332V49.8194H104.698V33.0593Z" fill="#FACC00"/>
<path d="M105.196 50.3182H93.0348V32.6603H105.196V50.3182ZM94.0316 49.3206H104.199V33.5581H94.0316V49.3206Z" fill="#1D477A"/>
<path d="M121.345 33.0593H110.18V49.8194H121.345V33.0593Z" fill="#FACC00"/>
<path d="M121.843 50.3182H109.682V32.6603H121.843V50.3182ZM110.679 49.3206H120.846V33.5581H110.679V49.3206Z" fill="#1D477A"/>
<path d="M138.091 33.0593H126.927V49.8194H138.091V33.0593Z" fill="#FACC00"/>
<path d="M138.59 50.3182H126.428V32.6603H138.59V50.3182ZM127.425 49.3206H137.593V33.5581H127.425V49.3206Z" fill="#1D477A"/>
<path d="M154.639 33.0593H143.474V49.8194H154.639V33.0593Z" fill="#FACC00"/>
<path d="M155.137 50.3182H142.976V32.6603H155.137V50.3182ZM143.973 49.3206H154.14V33.5581H143.973V49.3206Z" fill="#1D477A"/>
<path d="M171.385 33.0593H160.221V49.8194H171.385V33.0593Z" fill="#FACC00"/>
<path d="M171.884 50.3182H159.722V32.6603H171.884V50.3182ZM160.719 49.3206H170.887V33.5581H160.719V49.3206Z" fill="#1D477A"/>
<path d="M188.032 33.0593H176.868V49.8194H188.032V33.0593Z" fill="#FACC00"/>
<path d="M188.531 50.3182H176.369V32.6603H188.531V50.3182ZM177.366 49.3206H187.534V33.5581H177.366V49.3206Z" fill="#1D477A"/>
<path d="M87.951 66.4797H76.7865V83.2398H87.951V66.4797Z" fill="#FACC00"/>
<path d="M88.4494 83.7386H76.2881V66.0807H88.4494V83.7386ZM77.285 82.741H87.4526V66.9785H77.285V82.741Z" fill="#1D477A"/>
<path d="M104.698 66.4797H93.5332V83.2398H104.698V66.4797Z" fill="#FACC00"/>
<path d="M105.196 83.7386H93.0348V66.0807H105.196V83.7386ZM94.0316 82.741H104.199V66.9785H94.0316V82.741Z" fill="#1D477A"/>
<path d="M121.345 66.4797H110.18V83.2398H121.345V66.4797Z" fill="#FACC00"/>
<path d="M121.843 83.7386H109.682V66.0807H121.843V83.7386ZM110.679 82.741H120.846V66.9785H110.679V82.741Z" fill="#1D477A"/>
<path d="M138.091 66.4797H126.927V83.2398H138.091V66.4797Z" fill="#FACC00"/>
<path d="M138.59 83.7386H126.428V66.0807H138.59V83.7386ZM127.425 82.741H137.593V66.9785H127.425V82.741Z" fill="#1D477A"/>
<path d="M154.639 66.4797H143.474V83.2398H154.639V66.4797Z" fill="#FACC00"/>
<path d="M155.137 83.7386H142.976V66.0807H155.137V83.7386ZM143.973 82.741H154.14V66.9785H143.973V82.741Z" fill="#1D477A"/>
<path d="M171.385 66.4797H160.221V83.2398H171.385V66.4797Z" fill="#FACC00"/>
<path d="M171.884 83.7386H159.722V66.0807H171.884V83.7386ZM160.719 82.741H170.887V66.9785H160.719V82.741Z" fill="#1D477A"/>
<path d="M188.032 66.4797H176.868V83.2398H188.032V66.4797Z" fill="#FACC00"/>
<path d="M188.531 83.7386H176.369V66.0807H188.531V83.7386ZM177.366 82.741H187.534V66.9785H177.366V82.741Z" fill="#1D477A"/>
<path d="M168.594 133.221H96.3243V180.508H168.594V133.221Z" fill="#9F9F9F"/>
<path d="M169.093 180.907H95.8259V132.622H169.093V180.907ZM96.8227 179.91H168.096V133.62H96.8227V179.91Z" fill="#1D477A"/>
<path d="M129.718 141.202H107.489V180.409H129.718V141.202Z" fill="#7CACE7"/>
<path d="M130.216 180.907H106.99V140.703H130.216V180.907ZM107.987 179.91H129.22V141.701H107.987V179.91Z" fill="#1D477A"/>
<path d="M157.43 141.202H135.201V180.409H157.43V141.202Z" fill="#7CACE7"/>
<path d="M157.928 180.907H134.702V140.703H157.928V180.907ZM135.699 179.91H156.931V141.701H135.699V179.91Z" fill="#1D477A"/>
<path d="M124.136 156.466H118.554V162.052H124.136V156.466Z" fill="#D0D0D0"/>
<path d="M124.634 162.551H118.055V155.967H124.634V162.551ZM119.052 161.554H123.637V156.964H119.052V161.554Z" fill="#1D477A"/>
<path d="M146.365 156.466H140.783V162.052H146.365V156.466Z" fill="#D0D0D0"/>
<path d="M146.764 162.551H140.185V155.967H146.764V162.551ZM141.281 161.554H145.867V156.964H141.281V161.554Z" fill="#1D477A"/>
<path d="M87.951 155.468H82.3688V166.641H87.951V155.468Z" fill="#9F9F9F"/>
<path d="M88.4494 167.14H81.8703V154.969H88.4494V167.14ZM82.8672 166.143H87.4526V155.967H82.8672V166.143Z" fill="#1D477A"/>
<path d="M182.45 155.468H176.868V166.641H182.45V155.468Z" fill="#9F9F9F"/>
<path d="M182.948 167.14H176.369V154.969H182.948V167.14ZM177.366 166.143H181.952V155.967H177.366V166.143Z" fill="#1D477A"/>
<path d="M87.951 137.311H82.3688V148.485H87.951V137.311Z" fill="#9F9F9F"/>
<path d="M88.4494 148.983H81.8703V136.812H88.4494V148.983ZM82.8672 147.986H87.4526V137.81H82.8672V147.986Z" fill="#1D477A"/>
<path d="M182.45 137.311H176.868V148.485H182.45V137.311Z" fill="#9F9F9F"/>
<path d="M182.948 148.983H176.369V136.812H182.948V148.983ZM177.366 147.986H181.952V137.81H177.366V147.986Z" fill="#1D477A"/>
<path d="M199.197 16.4988H65.8215V22.0855H199.197V16.4988Z" fill="#D0D0D0"/>
<path d="M199.695 22.5843H65.3231V16H199.695V22.5843ZM66.3199 21.5867H198.698V16.9976H66.3199V21.5867Z" fill="#1D477A"/>
<path d="M199.197 49.8195H65.8215V55.4062H199.197V49.8195Z" fill="#D0D0D0"/>
<path d="M199.695 55.905H65.3231V49.3207H199.695V55.905ZM66.3199 54.9074H198.698V50.3183H66.3199V54.9074Z" fill="#1D477A"/>
<path d="M199.197 83.1401H65.8215V88.7268H199.197V83.1401Z" fill="#D0D0D0"/>
<path d="M199.695 89.2257H65.3231V82.6414H199.695V89.2257ZM66.3199 88.2281H198.698V83.639H66.3199V88.2281Z" fill="#1D477A"/>
<path d="M199.197 116.561H65.8215V122.147H199.197V116.561Z" fill="#D0D0D0"/>
<path d="M199.695 122.646H65.3231V116.062H199.695V122.646ZM66.3199 121.648H198.698V117.059H66.3199V121.648Z" fill="#1D477A"/>
<path d="M93.5332 129.929V133.221V136.513V177.116H99.1154V136.513H165.803V177.116H171.385V136.513V133.221V129.929H93.5332Z" fill="#D0D0D0"/>
<path d="M171.884 177.615H165.305V137.012H99.6139V177.615H93.0348V129.33H171.884V177.615ZM166.301 176.617H170.887V130.328H94.0316V176.617H98.617V136.014H166.301V176.617Z" fill="#1D477A"/>
<path d="M215.744 177.715H49.0748V183.302H215.744V177.715Z" fill="#D0D0D0"/>
<path d="M216.242 183.8H48.5764V177.216H216.242V183.8ZM49.5732 182.803H215.246V178.214H49.5732V182.803Z" fill="#1D477A"/>
<path d="M220.728 165.644C224.416 165.644 227.507 162.551 227.507 158.86V136.114C227.507 132.423 224.416 129.33 220.728 129.33C217.04 129.33 213.95 132.323 213.95 136.114V158.86C213.95 162.551 216.94 165.644 220.728 165.644Z" fill="#E2F0D4"/>
<path d="M220.728 166.142C216.741 166.142 213.451 162.85 213.451 158.86V136.114C213.451 132.123 216.741 128.831 220.728 128.831C224.616 128.831 228.005 132.123 228.005 136.114V158.86C228.005 162.751 224.715 166.142 220.728 166.142ZM220.728 129.829C217.239 129.829 214.448 132.622 214.448 136.114V158.86C214.448 162.351 217.239 165.145 220.728 165.145C224.117 165.145 227.008 162.252 227.008 158.86V136.114C227.008 132.622 224.117 129.829 220.728 129.829Z" fill="#1D477A"/>
<path d="M220.729 183.9C220.429 183.9 220.23 183.701 220.23 183.401V148.485C220.23 148.185 220.429 147.986 220.729 147.986C221.028 147.986 221.227 148.185 221.227 148.485V183.401C221.227 183.701 221.028 183.9 220.729 183.9Z" fill="#1D477A"/>
<path d="M220.728 159.957C220.529 159.957 220.329 159.857 220.23 159.658C220.13 159.359 220.23 159.159 220.429 158.96L224.815 156.964C225.114 156.865 225.314 156.964 225.513 157.164C225.613 157.463 225.513 157.663 225.314 157.862L220.928 159.857C220.928 159.957 220.828 159.957 220.728 159.957Z" fill="#1D477A"/>
<path d="M220.728 154.071C220.529 154.071 220.329 153.971 220.23 153.772C220.13 153.473 220.23 153.273 220.529 153.074L223.918 151.577C224.217 151.477 224.416 151.577 224.616 151.876C224.715 152.176 224.616 152.375 224.317 152.575L220.928 154.071C220.828 154.071 220.828 154.071 220.728 154.071Z" fill="#1D477A"/>
<path d="M220.628 157.663C220.529 157.663 220.529 157.663 220.429 157.663L216.043 155.667C215.744 155.568 215.644 155.268 215.844 154.969C216.043 154.67 216.242 154.57 216.542 154.77L220.928 156.765C221.227 156.865 221.326 157.164 221.127 157.463C221.027 157.563 220.828 157.663 220.628 157.663Z" fill="#1D477A"/>
<path d="M220.628 151.777C220.529 151.777 220.529 151.777 220.429 151.777L217.04 150.28C216.741 150.181 216.641 149.881 216.741 149.582C216.841 149.283 217.14 149.183 217.439 149.283L220.828 150.779C221.127 150.879 221.227 151.178 221.127 151.477C221.027 151.677 220.828 151.777 220.628 151.777Z" fill="#1D477A"/>
<path d="M19.2697 156.466C24.8519 156.466 29.537 151.777 29.537 146.19V111.572C29.537 105.986 24.8519 101.297 19.2697 101.297C13.6875 101.297 9.0024 105.886 9.0024 111.572V146.19C9.0024 151.677 13.5878 156.466 19.2697 156.466Z" fill="#E2F0D4"/>
<path d="M19.2697 156.964C13.4881 156.964 8.50398 152.076 8.50398 146.19V111.572C8.50398 105.686 13.2887 100.798 19.2697 100.798C25.0513 100.798 30.0354 105.686 30.0354 111.572V146.19C30.0354 151.976 25.151 156.964 19.2697 156.964ZM19.2697 101.796C13.8868 101.796 9.50081 106.185 9.50081 111.572V146.19C9.50081 151.477 13.9865 155.967 19.2697 155.967C24.5529 155.967 29.0386 151.477 29.0386 146.19V111.572C29.0386 106.285 24.5529 101.796 19.2697 101.796Z" fill="#1D477A"/>
<path d="M19.2701 183.9C18.9708 183.9 18.7713 183.701 18.7713 183.401V130.428C18.7713 130.128 18.9708 129.929 19.2701 129.929C19.5694 129.929 19.7689 130.128 19.7689 130.428V183.401C19.7689 183.701 19.5694 183.9 19.2701 183.9Z" fill="#1D477A"/>
<path d="M19.2697 147.487C19.0703 147.487 18.871 147.387 18.7713 147.188C18.6716 146.888 18.7713 146.689 19.0703 146.489L25.7491 143.496C26.0481 143.397 26.2475 143.496 26.4468 143.796C26.5465 144.095 26.4468 144.294 26.1478 144.494L19.4691 147.487C19.4691 147.487 19.3694 147.487 19.2697 147.487Z" fill="#1D477A"/>
<path d="M19.2697 138.608C19.0703 138.608 18.871 138.508 18.7713 138.309C18.6716 138.009 18.7713 137.81 19.0703 137.61L24.2538 135.316C24.4532 135.216 24.7522 135.316 24.9516 135.615C25.151 135.914 24.9516 136.114 24.6526 136.313L19.4691 138.608C19.4691 138.608 19.3694 138.608 19.2697 138.608Z" fill="#1D477A"/>
<path d="M19.17 143.995C19.0703 143.995 19.0703 143.995 18.9707 143.995L12.2919 141.002C11.9929 140.903 11.8932 140.603 11.9929 140.304C12.0926 140.005 12.3916 139.905 12.6906 140.005L19.3694 142.998C19.6684 143.097 19.7681 143.397 19.6684 143.696C19.5687 143.895 19.3694 143.995 19.17 143.995Z" fill="#1D477A"/>
<path d="M19.17 135.116C19.0703 135.116 19.0703 135.116 18.9707 135.116L13.7872 132.822C13.4881 132.722 13.3884 132.423 13.4881 132.124C13.5878 131.824 13.8868 131.725 14.1859 131.824L19.3694 134.119C19.6684 134.219 19.7681 134.518 19.6684 134.817C19.5687 135.017 19.3694 135.116 19.17 135.116Z" fill="#1D477A"/>
<path d="M56.7504 144.294C56.7504 152.774 49.8723 159.658 41.3992 159.658C32.9262 159.658 26.0481 152.774 26.0481 144.294C26.0481 135.815 32.9262 128.931 41.3992 128.931C49.7726 129.031 56.7504 135.815 56.7504 144.294Z" fill="#8BC451"/>
<path d="M41.3992 160.157C32.7269 160.157 25.5497 153.074 25.5497 144.294C25.5497 135.515 32.6272 128.432 41.3992 128.432C50.0716 128.432 57.2488 135.515 57.2488 144.294C57.2488 153.074 50.1713 160.157 41.3992 160.157ZM41.3992 129.53C33.2253 129.53 26.5465 136.214 26.5465 144.394C26.5465 152.575 33.2253 159.259 41.3992 159.259C49.5732 159.259 56.2519 152.575 56.2519 144.394C56.2519 136.214 49.5732 129.53 41.3992 129.53Z" fill="#1D477A"/>
<path d="M41.3 183.102C41.0007 183.102 40.8011 182.903 40.8011 182.603V145.99C40.8011 145.691 41.0007 145.492 41.3 145.492C41.5992 145.492 41.7988 145.691 41.7988 145.99V182.603C41.7988 182.903 41.5992 183.102 41.3 183.102Z" fill="#1D477A"/>
<path d="M41.1999 156.864C41.1002 156.864 41.1002 156.864 41.0005 156.864L34.1224 153.672C33.923 153.572 33.7237 153.273 33.923 152.974C34.0227 152.674 34.3218 152.575 34.6208 152.774L41.4989 155.967C41.6983 156.066 41.8977 156.366 41.6983 156.665C41.5986 156.765 41.3992 156.864 41.1999 156.864Z" fill="#1D477A"/>
<path d="M41.1999 152.575C41.1002 152.575 41.1002 152.575 41.0005 152.575L35.817 150.18C35.518 150.081 35.4183 149.781 35.6177 149.482C35.7173 149.283 36.0164 149.083 36.3154 149.283L41.4989 151.677C41.798 151.777 41.8977 152.076 41.6983 152.375C41.5986 152.475 41.3992 152.575 41.1999 152.575Z" fill="#1D477A"/>
<path d="M41.3992 154.77C41.1999 154.77 41.0005 154.67 40.9008 154.47C40.8011 154.271 40.9008 153.971 41.1002 153.772L47.9783 150.58C48.2773 150.48 48.4767 150.58 48.6761 150.779C48.7758 150.979 48.6761 151.278 48.4767 151.477L41.5986 154.67C41.5986 154.77 41.4989 154.77 41.3992 154.77Z" fill="#1D477A"/>
<path d="M41.3992 150.48C41.1999 150.48 41.0005 150.38 40.9008 150.18C40.8011 149.881 40.9008 149.682 41.1002 149.482L46.2837 147.088C46.5827 146.988 46.7821 147.088 46.9815 147.287C47.0812 147.587 46.9815 147.786 46.7821 147.986L41.5986 150.38C41.5986 150.48 41.4989 150.48 41.3992 150.48Z" fill="#1D477A"/>
<path d="M226.407 181.903H9.50398C9.50398 181.903 8.44531 181.903 8.50398 182.903C8.56266 183.903 9.50398 183.903 9.50398 183.903H226.407C226.407 183.903 227.408 183.903 227.407 182.903C227.406 181.903 226.407 181.903 226.407 181.903Z" fill="#1D477A"/>
</svg>
